<?xml version="1.0" standalone="no"?>
<!DOCTYPE svg PUBLIC "-//W3C//DTD SVG 20010904//EN"
 "http://www.w3.org/TR/2001/REC-SVG-20010904/DTD/svg10.dtd">
<svg version="1.0" xmlns="http://www.w3.org/2000/svg"
 width="2048.000000pt" height="2048.000000pt" viewBox="0 0 2048.000000 2048.000000"
 preserveAspectRatio="xMidYMid meet">

<g transform="translate(0.000000,2048.000000) scale(0.100000,-0.100000)"
fill="#FF0000" stroke="none">
<path d="M15785 16545 c-38 -8 -187 -35 -330 -60 -143 -25 -395 -71 -560 -101
-165 -30 -388 -71 -495 -90 -594 -106 -2418 -464 -3785 -744 -675 -139 -1084
-222 -1300 -265 -121 -24 -463 -94 -760 -155 -297 -61 -675 -138 -839 -171
l-300 -59 -110 -76 c-61 -41 -167 -115 -236 -163 -267 -186 -1003 -696 -1370
-949 -342 -236 -486 -335 -855 -586 -55 -38 -107 -75 -115 -83 -19 -19 -13
-18 325 47 138 26 360 69 495 95 633 120 2703 537 4255 855 297 61 695 142
885 180 190 38 385 78 433 89 69 15 89 17 93 7 3 -7 -20 -150 -51 -317 -124
-675 -368 -1962 -475 -2504 -38 -192 -105 -539 -150 -770 -165 -852 -232
-1180 -243 -1191 -7 -6 -82 -25 -167 -42 -147 -29 -736 -149 -1724 -351 -241
-49 -443 -94 -448 -99 -7 -7 42 -78 141 -209 83 -109 198 -259 254 -333 57
-74 198 -259 313 -410 115 -151 340 -450 499 -665 160 -214 379 -509 487 -655
109 -146 265 -355 347 -465 81 -110 269 -362 416 -560 148 -198 327 -439 399
-535 71 -96 188 -254 260 -350 71 -96 255 -344 409 -550 153 -206 288 -383
299 -392 19 -17 127 -18 1964 -18 1068 0 1945 4 1948 8 3 5 -221 100 -497 212
-276 112 -731 296 -1012 410 -280 114 -613 249 -740 300 -468 189 -941 382
-957 391 -9 5 -83 99 -165 208 -81 109 -269 362 -418 562 -148 200 -351 472
-450 605 -99 133 -268 360 -376 505 -108 145 -330 444 -494 663 -163 220 -299
405 -302 412 -6 16 -53 6 555 128 282 56 517 107 521 112 4 5 51 230 104 499
53 270 146 742 206 1050 285 1450 611 3133 646 3335 68 387 180 939 193 954
25 27 589 418 1322 915 91 62 219 150 285 196 164 114 376 258 865 587 746
502 906 612 880 607 -3 0 -36 -7 -75 -14z"/>
<path d="M10700 13880 c-47 -11 -274 -57 -505 -104 -231 -47 -492 -101 -580
-121 -175 -38 -973 -200 -1450 -295 -636 -127 -804 -161 -935 -190 -251 -55
-1664 -334 -2335 -461 -121 -23 -222 -43 -224 -45 -3 -3 0 -8 5 -13 8 -8 994
-421 1364 -571 321 -131 755 -312 783 -327 26 -13 28 -18 23 -46 -4 -18 -25
-129 -47 -247 -22 -118 -75 -395 -119 -615 -43 -220 -117 -598 -164 -840 -47
-242 -153 -784 -236 -1205 -83 -421 -196 -997 -251 -1280 -171 -875 -178 -912
-189 -926 -6 -7 -79 -59 -163 -116 -84 -56 -211 -143 -284 -193 -576 -393
-749 -511 -1163 -790 -418 -282 -415 -280 -399 -283 8 -1 122 18 254 42 132
25 305 57 385 71 431 77 2494 480 2511 491 4 2 12 34 18 71 6 38 48 255 92
483 44 228 121 624 170 880 50 256 130 668 179 915 49 248 119 601 155 785 36
184 67 345 70 356 5 24 -3 22 305 84 85 17 376 76 645 131 270 55 675 138 900
184 479 97 495 101 505 112 9 9 115 532 240 1178 44 231 121 627 170 880 103
531 236 1232 245 1290 4 22 36 192 71 378 35 186 62 343 59 348 -7 11 1 12
-105 -11z m-1490 -1661 c0 -14 -61 -334 -168 -878 -42 -217 -81 -400 -87 -407
-6 -8 -184 -49 -430 -99 -526 -108 -566 -116 -575 -110 -7 4 5 71 140 765 43
223 82 429 86 457 12 90 -79 63 824 248 183 37 210 40 210 24z"/>
</g>
</svg>
